<svg xmlns="http://www.w3.org/2000/svg" xmlns:xlink="http://www.w3.org/1999/xlink" width="500" zoomAndPan="magnify" viewBox="0 0 375 374.999991" height="500" preserveAspectRatio="xMidYMid meet" version="1.0"><defs><g/></defs><g fill="#000000" fill-opacity="1"><g transform="translate(24.433597, 228.749985)"><g><path d="M 18.875 -6.34375 L 18.875 -71.9375 L 10.84375 -71.9375 L 10.84375 -6.34375 Z M 72.890625 -6.34375 L 43.96875 -42.5625 L 40.203125 -39.53125 L 66.703125 -6.34375 Z M 86.140625 0 L 63.625 0 L 35.203125 -35.546875 L 25.21875 -27.515625 L 25.21875 0 L 4.5 0 L 4.5 -78.28125 L 25.21875 -78.28125 L 25.21875 -35.71875 L 78.4375 -78.28125 L 88.609375 -78.28125 L 48.96875 -46.546875 Z M 86.140625 0 "/></g></g></g><g fill="#000000" fill-opacity="1"><g transform="translate(117.531014, 228.749985)"><g><path d="M 68.390625 0 L 4.5 0 L 4.5 -78.28125 L 68.390625 -78.28125 L 68.390625 -71.9375 L 25.265625 -71.9375 L 25.265625 -42.34375 L 61.203125 -42.34375 L 61.203125 -35.9375 L 25.265625 -35.9375 L 25.265625 -6.34375 L 68.390625 -6.34375 Z M 18.875 -6.34375 L 18.875 -71.9375 L 10.84375 -71.9375 L 10.84375 -6.34375 Z M 18.875 -6.34375 "/></g></g></g><g fill="#000000" fill-opacity="1"><g transform="translate(190.414276, 228.749985)"><g><path d="M 68.390625 0 L 4.5 0 L 4.5 -78.28125 L 68.390625 -78.28125 L 68.390625 -71.9375 L 25.265625 -71.9375 L 25.265625 -42.34375 L 61.203125 -42.34375 L 61.203125 -35.9375 L 25.265625 -35.9375 L 25.265625 -6.34375 L 68.390625 -6.34375 Z M 18.875 -6.34375 L 18.875 -71.9375 L 10.84375 -71.9375 L 10.84375 -6.34375 Z M 18.875 -6.34375 "/></g></g></g><g fill="#000000" fill-opacity="1"><g transform="translate(263.297549, 228.749985)"><g><path d="M 36.4375 -11.734375 L 40.203125 -21.171875 L 19.875 -71.9375 L 12.359375 -71.9375 Z M 76.421875 -6.34375 L 76.421875 -71.9375 L 68.390625 -71.9375 L 68.390625 -6.34375 Z M 82.765625 0 L 62 0 L 62 -58.5625 L 38.578125 0 L 34.3125 0 L 10.84375 -58.5625 L 10.84375 0 L 4.5 0 L 4.5 -78.28125 L 24.203125 -78.28125 L 43.625 -29.765625 L 63.0625 -78.28125 L 82.765625 -78.28125 Z M 82.765625 0 "/></g></g></g></svg>