<svg xmlns="http://www.w3.org/2000/svg" xmlns:xlink="http://www.w3.org/1999/xlink" width="500" zoomAndPan="magnify" viewBox="0 0 375 374.999991" height="500" preserveAspectRatio="xMidYMid meet" version="1.0"><defs><g/></defs><g fill="#ffffff" fill-opacity="1"><g transform="translate(85.40625, 213.749986)"><g><path d="M 11.8125 -3.96875 L 11.8125 -45.03125 L 6.78125 -45.03125 L 6.78125 -3.96875 Z M 45.640625 -3.96875 L 27.53125 -26.65625 L 25.171875 -24.75 L 41.765625 -3.96875 Z M 53.9375 0 L 39.828125 0 L 22.046875 -22.25 L 15.78125 -17.234375 L 15.78125 0 L 2.8125 0 L 2.8125 -49.015625 L 15.78125 -49.015625 L 15.78125 -22.359375 L 49.109375 -49.015625 L 55.484375 -49.015625 L 30.65625 -29.140625 Z M 53.9375 0 "/></g></g><g transform="translate(143.695309, 213.749986)"><g><path d="M 42.828125 0 L 2.8125 0 L 2.8125 -49.015625 L 42.828125 -49.015625 L 42.828125 -45.03125 L 15.828125 -45.03125 L 15.828125 -26.515625 L 38.328125 -26.515625 L 38.328125 -22.5 L 15.828125 -22.5 L 15.828125 -3.96875 L 42.828125 -3.96875 Z M 11.8125 -3.96875 L 11.8125 -45.03125 L 6.78125 -45.03125 L 6.78125 -3.96875 Z M 11.8125 -3.96875 "/></g></g><g transform="translate(189.328118, 213.749986)"><g><path d="M 42.828125 0 L 2.8125 0 L 2.8125 -49.015625 L 42.828125 -49.015625 L 42.828125 -45.03125 L 15.828125 -45.03125 L 15.828125 -26.515625 L 38.328125 -26.515625 L 38.328125 -22.5 L 15.828125 -22.5 L 15.828125 -3.96875 L 42.828125 -3.96875 Z M 11.8125 -3.96875 L 11.8125 -45.03125 L 6.78125 -45.03125 L 6.78125 -3.96875 Z M 11.8125 -3.96875 "/></g></g><g transform="translate(234.960927, 213.749986)"><g><path d="M 22.8125 -7.34375 L 25.171875 -13.25 L 12.453125 -45.03125 L 7.734375 -45.03125 Z M 47.84375 -3.96875 L 47.84375 -45.03125 L 42.828125 -45.03125 L 42.828125 -3.96875 Z M 51.828125 0 L 38.8125 0 L 38.8125 -36.671875 L 24.15625 0 L 21.484375 0 L 6.78125 -36.671875 L 6.78125 0 L 2.8125 0 L 2.8125 -49.015625 L 15.15625 -49.015625 L 27.3125 -18.640625 L 39.484375 -49.015625 L 51.828125 -49.015625 Z M 51.828125 0 "/></g></g></g></svg>